<svg xmlns="http://www.w3.org/2000/svg" xmlns:xlink="http://www.w3.org/1999/xlink" width="332.278" height="327.037" viewBox="0 0 332.278 327.037"><defs><style>.a{fill:#bbcee1;}.b,.e{fill:#fff;}.c{fill:#a7bcce;}.d{fill:#91a6b7;}.e{opacity:0.2;}.f{fill:#f4767a;}.g{fill:#ed5561;}.h{fill:#d8395a;}.i{opacity:0.4;}.j{fill:#933e31;}.k{fill:#1c75bc;}.l{fill:#9d4d36;}.m{fill:#2a87c6;}.n{fill:#e8ebf5;}.o{fill:#0f4463;}.p{fill:#0b3b56;}.q{fill:#1f5e77;}.r{fill:#07304b;}.s{fill:url(#a);}.t{fill:#fed4bd;}.u{fill:#f4c5a2;}.v{fill:#de495a;}.w{fill:#ef4136;}.x{fill:#79ff68;}.y{fill:#50e85e;}.z{fill:#3cc743;}.aa{fill:#9263c1;}.ab{fill:#8444b2;}.ac{fill:#7231a3;}.ad{fill:#ffa8e1;}.ae{fill:#ff7ad2;}.af{fill:#de64c6;}.ag{fill:#f5d012;}.ah{fill:#edf0f8;}.ai{fill:#f0cec9;}.aj{fill:#fffbf0;}.ak{fill:#f5ddd8;}.al{fill:#dfbab8;}</style><linearGradient id="a" x1="0.37" y1="0.825" x2="0.685" y2="0.038" gradientUnits="objectBoundingBox"><stop offset="0" stop-color="#1c75bc"/><stop offset="0.279" stop-color="#1f77bc"/><stop offset="0.541" stop-color="#2b7dbc"/><stop offset="0.796" stop-color="#3e88bc"/><stop offset="1" stop-color="#5394bc"/></linearGradient></defs><g transform="translate(-540.752 -1217.963)"><g transform="translate(825.226 1435.468)"><g transform="translate(0 14.376)"><path class="a" d="M1282.429,487.479l-23.49-13.636v8.789l23.492,13.6Z" transform="translate(-1258.939 -459.891)"/><path class="b" d="M1283.218,465.5l-24.279,13.953,23.49,13.636,24.313-13.973Z" transform="translate(-1258.939 -465.502)"/><path class="c" d="M1297.3,473.641l-24.314,13.974,0,8.751L1297.3,482.3Z" transform="translate(-1249.492 -460.026)"/></g><path class="a" d="M1282.429,478.885l-23.49-13.636v8.789l23.492,13.6Z" transform="translate(-1258.939 -451.296)"/><path class="b" d="M1283.218,456.908l-24.279,13.953,23.49,13.636,24.313-13.974Z" transform="translate(-1258.939 -456.908)"/><path class="c" d="M1297.3,465.047l-24.314,13.974,0,8.751,24.312-14.066Z" transform="translate(-1249.492 -451.432)"/><g transform="translate(11.746 6.415)"><path class="d" d="M1269.3,466.9q-1.9-1.1,1.718-3.2a10.63,10.63,0,0,1,3.207-1.3,3.3,3.3,0,0,1,2.3.2,1.63,1.63,0,0,1,.616.564,2.957,2.957,0,0,1,.284.632l2.222-.544a2.75,2.75,0,0,0-.579-.974,4.069,4.069,0,0,0-.947-.724,6.674,6.674,0,0,0-4.145-.751,12.591,12.591,0,0,0-4.938,1.738c-1.693.984-2.693,1.929-2.991,2.839s.137,1.708,1.316,2.389a6.415,6.415,0,0,0,2.479.841l1.725-1A6.586,6.586,0,0,1,1269.3,466.9Z" transform="translate(-1265.961 -460.743)"/><path class="d" d="M1277.859,468.191a2.16,2.16,0,0,0-.035-1.643,2.239,2.239,0,0,1-.177-1.134,1.15,1.15,0,0,1,.619-.713,2.445,2.445,0,0,1,1.1-.343,1.839,1.839,0,0,1,1.041.237,2.018,2.018,0,0,1,.652.562,4.113,4.113,0,0,1,.365.622l2.2-.53a3.737,3.737,0,0,0-1.647-1.726,5.347,5.347,0,0,0-2.8-.709,5.779,5.779,0,0,0-2.869.8,3.727,3.727,0,0,0-1.044.823,1.965,1.965,0,0,0-.417.866,2.407,2.407,0,0,0,.141,1.107,2.4,2.4,0,0,1,.15,1.2,1.141,1.141,0,0,1-.614.753,2.3,2.3,0,0,1-1.121.318,2.143,2.143,0,0,1-1.151-.308,3.144,3.144,0,0,1-1.4-1.693l-1.92,1.116a4.365,4.365,0,0,0,1.8,1.661,5.566,5.566,0,0,0,2.92.783,6.052,6.052,0,0,0,2.979-.872A2.924,2.924,0,0,0,1277.859,468.191Z" transform="translate(-1263.965 -459.349)"/><path class="d" d="M1285.6,465.621a5.348,5.348,0,0,0-2.8-.709,5.817,5.817,0,0,0-2.869.8,3.892,3.892,0,0,0-1.044.823,1.965,1.965,0,0,0-.415.866,2.465,2.465,0,0,0,.139,1.107,2.48,2.48,0,0,1,.156,1.2,1.169,1.169,0,0,1-.619.749,2.333,2.333,0,0,1-1.116.321,2.164,2.164,0,0,1-1.151-.309,3.123,3.123,0,0,1-1.4-1.691l-1.921,1.116a4.343,4.343,0,0,0,1.8,1.658,5.546,5.546,0,0,0,2.921.783,6.066,6.066,0,0,0,2.984-.868,2.916,2.916,0,0,0,1.223-1.181,2.137,2.137,0,0,0-.035-1.643,2.232,2.232,0,0,1-.171-1.132,1.121,1.121,0,0,1,.612-.714,2.444,2.444,0,0,1,1.1-.343,1.822,1.822,0,0,1,1.044.241,1.991,1.991,0,0,1,.647.559,4.157,4.157,0,0,1,.365.622l2.2-.53A3.727,3.727,0,0,0,1285.6,465.621Z" transform="translate(-1261.52 -457.939)"/></g></g><path class="e" d="M1197.624,338.877l-20.447-11.8a1.5,1.5,0,0,0-2.243,1.3v24.475a3.339,3.339,0,0,0,1.668,2.89l20.444,11.819a1.534,1.534,0,0,0,2.3-1.328V341.859A3.445,3.445,0,0,0,1197.624,338.877Z" transform="translate(-490.226 891.086)"/><g transform="translate(667.368 1230.087)"><path class="f" d="M1200.537,349.93l-26.809-15.471a2.533,2.533,0,0,0-2.683.107h0l-5.886,3.4,2.736,3.71,1.02,1.169V369.4a4.432,4.432,0,0,0,2.211,3.834l20.064,11.6.206,1.114,4.095,5.737,6.3-3.7.032-.018.043-.023v0a2.014,2.014,0,0,0,.959-1.726l0-32.33A4.564,4.564,0,0,0,1200.537,349.93Z" transform="translate(-1164.169 -334.125)"/><path class="g" d="M1194.669,352.177l-27.125-15.65a1.986,1.986,0,0,0-2.977,1.72v32.469a4.429,4.429,0,0,0,2.213,3.832l27.12,15.68a2.035,2.035,0,0,0,3.054-1.761V356.134A4.571,4.571,0,0,0,1194.669,352.177Z" transform="translate(-1164.567 -332.69)"/><g transform="translate(31.318 18.263)"><path class="a" d="M1183.333,368.525l-.04.023,0-.005A.358.358,0,0,0,1183.333,368.525Z" transform="translate(-1183.29 -329.246)"/><path class="h" d="M1184.335,382.557V350.225a4.509,4.509,0,0,0-.309-1.559l6.291-3.623a4.522,4.522,0,0,1,.286,1.5l0,32.33a2.007,2.007,0,0,1-.96,1.725v.005l-.042.023-.032.018-6.243,3.67A2.014,2.014,0,0,0,1184.335,382.557Z" transform="translate(-1183.267 -345.043)"/></g></g><g transform="translate(670.485 1247.562)"><path class="b" d="M1169.761,346.476l-3.3-1.9-.034,11.866,2.189,1.264.012-4.217.94.542q1.919,1.109,2.969.7c.694-.281,1.044-1.052,1.047-2.332a5.949,5.949,0,0,0-.968-3.339A8.283,8.283,0,0,0,1169.761,346.476Zm1.109,5.776a2.037,2.037,0,0,1-1.514-.415l-.719-.415.01-3.523,1,.575a3.752,3.752,0,0,1,1.316,1.184,2.844,2.844,0,0,1,.417,1.551C1171.377,351.795,1171.206,352.138,1170.87,352.251Z" transform="translate(-1166.431 -344.572)"/><path class="b" d="M1177.815,355.784l-4.09-2.361.013-4.651-2.189-1.264-.034,11.867,2.189,1.264.015-5.122,4.09,2.361-.014,5.122,2.184,1.261.034-11.867-2.184-1.261Z" transform="translate(-1163.01 -342.597)"/><path class="b" d="M1183.976,355.613a8.3,8.3,0,0,0-2.859-2.581l-3.3-1.9-.034,11.866,2.189,1.265.012-4.217.938.542q1.922,1.111,2.966.7c.7-.279,1.049-1.05,1.052-2.33A5.957,5.957,0,0,0,1183.976,355.613Zm-1.75,3.2a2.046,2.046,0,0,1-1.514-.415l-.719-.415.01-3.524,1,.577a3.729,3.729,0,0,1,1.316,1.183,2.865,2.865,0,0,1,.416,1.552C1182.733,358.351,1182.563,358.7,1182.226,358.809Z" transform="translate(-1158.791 -340.162)"/></g><g class="i" transform="translate(640.431 1247.099)"><path class="b" d="M1148.463,344.295v1.572l6.6,3.807V348.1Z" transform="translate(-1148.463 -344.295)"/><path class="b" d="M1148.463,346.011v1.571l6.6,3.807v-1.571Z" transform="translate(-1148.463 -343.141)"/><path class="b" d="M1148.463,347.727V349.3l6.6,3.807v-1.571Z" transform="translate(-1148.463 -341.986)"/><path class="b" d="M1194.625,377.641v-1.571l-40.736-23.5v1.571Z" transform="translate(-1144.812 -338.726)"/><path class="b" d="M1148.463,349.443v1.571l6.6,3.807V353.25Z" transform="translate(-1148.463 -340.832)"/><path class="b" d="M1148.463,351.159v1.571l6.6,3.807v-1.571Z" transform="translate(-1148.463 -339.677)"/><path class="b" d="M1194.625,379.357v-1.571l-40.736-23.5v1.571Z" transform="translate(-1144.812 -337.572)"/><path class="b" d="M1148.463,356.307v1.571l6.6,3.807v-1.571Z" transform="translate(-1148.463 -336.215)"/><path class="b" d="M1148.463,358.023v1.571l6.6,3.807V361.83Z" transform="translate(-1148.463 -335.06)"/><path class="b" d="M1148.463,364.886v1.571l6.6,3.807v-1.571Z" transform="translate(-1148.463 -330.443)"/><path class="b" d="M1148.463,366.6v1.571l6.6,3.807v-1.571Z" transform="translate(-1148.463 -329.288)"/><g transform="translate(9.077 42.549)"><path class="b" d="M1179.589,384.556l-25.7-14.823V371.3l25.7,14.823Z" transform="translate(-1153.89 -369.732)"/><path class="b" d="M1170.063,379.061v1.571l13.682,7.892v-1.571Z" transform="translate(-1143.009 -363.457)"/></g><g transform="translate(9.077 39.679)"><path class="b" d="M1166.8,375.464l-12.912-7.447v1.571l12.912,7.447Z" transform="translate(-1153.89 -368.016)"/><path class="b" d="M1162.418,372.936v1.571l26.47,15.268V388.2Z" transform="translate(-1148.152 -364.707)"/></g><path class="b" d="M1176.161,375.715v1.572l3.482,2.008v-1.571Z" transform="translate(-1129.83 -323.158)"/><path class="b" d="M1172.193,371.71l-18.3-10.558v1.571l18.3,10.558Z" transform="translate(-1144.812 -332.954)"/><path class="b" d="M1164.693,353.657l-10.8-6.232V349l10.8,6.232Z" transform="translate(-1144.812 -342.189)"/><g transform="translate(21.235 12.249)"><path class="b" d="M1177.513,361.051l-16.355-9.434v1.571l16.355,9.434Z" transform="translate(-1161.158 -351.617)"/></g><path class="b" d="M1169.868,358.357l-11.515-6.642v1.571l11.515,6.642Z" transform="translate(-1141.81 -339.303)"/><g transform="translate(29.413 19.836)"><path class="b" d="M1176.774,362.341l-10.727-6.187v1.571l10.727,6.187Z" transform="translate(-1166.047 -356.153)"/><path class="b" d="M1173.27,360.319v1.571l8.318,4.8v-1.571Z" transform="translate(-1161.188 -353.351)"/></g><path class="b" d="M1155.162,351.591v1.571l8.676,5v-1.571Z" transform="translate(-1143.957 -339.387)"/><path class="b" d="M1186.342,369.575l-25.184-14.526v1.571l25.184,14.526Z" transform="translate(-1139.923 -337.06)"/><path class="b" d="M1174.213,367.727l-16.458-9.493v1.571l16.458,9.493Z" transform="translate(-1142.212 -334.918)"/><path class="b" d="M1181.467,371.912l-13.063-7.535v1.571l13.063,7.535Z" transform="translate(-1135.049 -330.786)"/><g transform="translate(28.736 39.537)"><path class="b" d="M1181.883,377.3l-16.241-9.368V369.5l16.241,9.368Z" transform="translate(-1165.642 -367.931)"/></g><path class="b" d="M1170.063,372.2v1.571l8.845,5.1V377.3Z" transform="translate(-1133.932 -325.524)"/><path class="b" d="M1157.074,364.706l-3.185-1.837v1.571l3.185,1.837Z" transform="translate(-1144.812 -331.8)"/><g transform="translate(13.617 33.687)"><path class="b" d="M1159.361,366.024V367.6l16.547,9.545v-1.571Z" transform="translate(-1154.749 -363.364)"/><path class="b" d="M1159.861,366.313l-3.258-1.879v1.571l3.258,1.879Z" transform="translate(-1156.604 -364.434)"/></g><path class="b" d="M1174.7,376.589l-18.1-10.439v1.571l18.1,10.439Z" transform="translate(-1142.987 -329.593)"/></g><path class="e" d="M1275.275,357.356l-15.356-8.86a1.124,1.124,0,0,0-1.686.973V367.85a2.511,2.511,0,0,0,1.253,2.171l15.354,8.877a1.153,1.153,0,0,0,1.73-1V359.6A2.584,2.584,0,0,0,1275.275,357.356Z" transform="translate(-434.188 905.527)"/><path class="e" d="M1245.438,356.528l-23.3-13.445a1.706,1.706,0,0,0-2.558,1.479v27.891a3.8,3.8,0,0,0,1.9,3.294l23.3,13.47a1.749,1.749,0,0,0,2.623-1.514V359.927A3.921,3.921,0,0,0,1245.438,356.528Z" transform="translate(-460.192 901.833)"/><path class="e" d="M1293.08,396.4l-23.3-13.445a1.706,1.706,0,0,0-2.558,1.477v27.893a3.806,3.806,0,0,0,1.9,3.294l23.3,13.469a1.749,1.749,0,0,0,2.624-1.514V399.8A3.924,3.924,0,0,0,1293.08,396.4Z" transform="translate(-428.142 928.654)"/><path class="j" d="M1156.32,509.822c-6.184.058-4.155-4.645-4.155-4.645-9.178-2.8-13.683-1.239-13.693-1.239-2.3,8.1-1.372,13-1.457,14.947-.042.964.674,1.554,1.577,1.89,4.936,1.838,9.431,3.06,18.624,2.163,6.768-.659,13.932-6.925,12.3-13.36C1168.505,505.575,1162.592,509.762,1156.32,509.822Z" transform="translate(-515.811 1009.907)"/><path class="k" d="M1173.221,473.9c-1.817-2.355-4.921-4.369-10.073-3.007l-55.309,10.669,2.079,14.206a22.041,22.041,0,0,0,23.3,6.932,86.217,86.217,0,0,0,24.455-11.169l-1.867,39.2s8.678,2.688,16.4-1.974c1.3-.781,2.507-38.575,2.9-48.28A8.863,8.863,0,0,0,1173.221,473.9Z" transform="translate(-535.36 987.674)"/><path class="l" d="M1172.489,516.7c-6.422.062-4.314-4.821-4.314-4.821-9.531-2.906-14.208-1.288-14.218-1.286-2.384,8.414-1.425,13.5-1.512,15.52-.044,1,.7,1.612,1.638,1.962,5.125,1.909,9.792,3.177,19.337,2.246,7.027-.686,14.466-7.191,12.775-13.873C1185.141,512.29,1179,516.635,1172.489,516.7Z" transform="translate(-505.434 1014.37)"/><g transform="translate(556.733 1463.241)"><path class="a" d="M1145.9,515.777l-47.47-27.443v6.677l47.474,27.375Z" transform="translate(-1098.426 -463.54)"/><path class="b" d="M1141.569,473.511,1098.426,498.3l47.47,27.443,43.2-24.83Z" transform="translate(-1098.426 -473.511)"/><path class="c" d="M1170.01,489.9l-43.2,24.831,0,6.609,43.2-25Z" transform="translate(-1079.335 -462.49)"/></g><path class="m" d="M1190.038,479.4c-1.887-2.445-5.11-4.538-10.458-3.123l-57.429,11.078,2.16,14.748a22.882,22.882,0,0,0,24.192,7.2,89.5,89.5,0,0,0,25.392-11.6l-1.939,40.7s9.011,2.792,17.025-2.051c1.345-.811,2.6-40.052,3.006-50.13A9.2,9.2,0,0,0,1190.038,479.4Z" transform="translate(-525.733 991.285)"/><g transform="translate(559.053 1328.891)"><path class="n" d="M1102.452,451.924,1200.5,395a13.415,13.415,0,0,1,13.438-.017l154.465,89.358a5.913,5.913,0,0,1,.014,10.234l-95.874,55.653a15.945,15.945,0,0,1-15.974.02L1102.464,461.1A5.3,5.3,0,0,1,1102.452,451.924Z" transform="translate(-1099.813 -393.193)"/><path class="c" d="M1102.463,435.626l154.109,89.154a15.946,15.946,0,0,0,15.974-.02l95.873-55.653a5.853,5.853,0,0,0,2.939-5.092v7.475l-.012,0a5.842,5.842,0,0,1-2.927,4.995l-95.873,55.655a15.946,15.946,0,0,1-15.974.018l-154.109-89.152a5.25,5.25,0,0,1-2.646-4.622l0,0v-7.327A5.246,5.246,0,0,0,1102.463,435.626Z" transform="translate(-1099.812 -367.72)"/><path class="a" d="M1102.463,435.626l154.109,89.154a15.915,15.915,0,0,0,7.3,2.091v7.38a15.873,15.873,0,0,1-7.3-2.091l-154.109-89.152a5.25,5.25,0,0,1-2.646-4.622l0,0v-7.327A5.246,5.246,0,0,0,1102.463,435.626Z" transform="translate(-1099.812 -367.72)"/></g><g transform="translate(633.647 1298.34)"><g transform="translate(0 99.897)"><path class="o" d="M1144.9,444.62l16.642-9.628a2.521,2.521,0,0,1,2.529,0l51.389,29.721a1.112,1.112,0,0,1,0,1.925l-16.232,9.391a3,3,0,0,1-3.006,0l-51.324-29.682A1,1,0,0,1,1144.9,444.62Z" transform="translate(-1144.407 -434.65)"/><path class="p" d="M1144.907,441.988l51.324,29.682a3,3,0,0,0,3.006,0l16.232-9.391a1.1,1.1,0,0,0,.554-.957v1.991l0,0a1.1,1.1,0,0,1-.55.94l-16.232,9.389a2.993,2.993,0,0,1-3.006,0l-51.324-29.682a.987.987,0,0,1-.5-.87h0v-1.964A.988.988,0,0,0,1144.907,441.988Z" transform="translate(-1144.407 -430.292)"/><g transform="translate(3.466 1.834)"><path class="q" d="M1154.539,436.955l2.084-1.209,2.368,1.366-2.077,1.2Z" transform="translate(-1141.059 -435.746)"/><path class="q" d="M1156.3,437.972l2.084-1.209,2.368,1.366-2.077,1.205Z" transform="translate(-1139.871 -435.063)"/><path class="q" d="M1158.071,438.988l2.083-1.209,2.368,1.365-2.077,1.205Z" transform="translate(-1138.683 -434.379)"/><path class="q" d="M1159.837,440l2.084-1.209,2.367,1.366-2.077,1.205Z" transform="translate(-1137.495 -433.695)"/><path class="q" d="M1161.6,441.021l2.084-1.209,2.368,1.366-2.077,1.2Z" transform="translate(-1136.307 -433.011)"/><path class="q" d="M1163.368,442.038l2.084-1.209,2.367,1.365-2.077,1.205Z" transform="translate(-1135.119 -432.327)"/><path class="q" d="M1165.134,443.054l2.084-1.209,2.368,1.366-2.077,1.205Z" transform="translate(-1133.931 -431.644)"/><path class="q" d="M1166.9,444.07l2.084-1.209,2.368,1.365-2.077,1.205Z" transform="translate(-1132.743 -430.96)"/><path class="q" d="M1168.666,445.087l2.084-1.209,2.368,1.366-2.077,1.205Z" transform="translate(-1131.555 -430.276)"/><path class="q" d="M1170.432,446.1l2.084-1.209,2.368,1.366-2.077,1.2Z" transform="translate(-1130.367 -429.592)"/><path class="q" d="M1172.2,447.12l2.084-1.209,2.368,1.366-2.077,1.2Z" transform="translate(-1129.179 -428.908)"/><path class="q" d="M1173.964,448.137l2.084-1.209,2.368,1.366-2.077,1.205Z" transform="translate(-1127.991 -428.225)"/><path class="q" d="M1177.813,447.944l2.368,1.366-2.077,1.2-2.374-1.362Z" transform="translate(-1126.803 -427.541)"/><path class="q" d="M1155.3,439.251l-2.375-1.362,2.084-1.209,2.368,1.366Z" transform="translate(-1142.143 -435.118)"/><path class="q" d="M1159.145,439.062l-2.077,1.205-2.374-1.362,2.083-1.209Z" transform="translate(-1140.955 -434.435)"/><path class="q" d="M1160.91,440.079l-2.077,1.2-2.374-1.362,2.083-1.209Z" transform="translate(-1139.767 -433.751)"/><path class="q" d="M1162.676,441.1,1160.6,442.3l-2.375-1.362,2.084-1.209Z" transform="translate(-1138.579 -433.067)"/><path class="q" d="M1164.442,442.112l-2.077,1.205-2.374-1.362,2.084-1.208Z" transform="translate(-1137.391 -432.383)"/><path class="q" d="M1166.208,443.128l-2.077,1.205-2.375-1.362,2.084-1.209Z" transform="translate(-1136.203 -431.699)"/><path class="q" d="M1167.974,444.145l-2.077,1.2-2.375-1.362,2.084-1.209Z" transform="translate(-1135.015 -431.016)"/><path class="q" d="M1169.74,445.161l-2.077,1.205L1165.288,445l2.084-1.209Z" transform="translate(-1133.828 -430.332)"/><path class="q" d="M1171.505,446.177l-2.077,1.2-2.375-1.362,2.084-1.209Z" transform="translate(-1132.64 -429.648)"/><path class="q" d="M1173.271,447.194l-2.077,1.205-2.374-1.362,2.084-1.209Z" transform="translate(-1131.451 -428.964)"/><path class="q" d="M1175.038,448.21l-2.077,1.205-2.374-1.362,2.084-1.209Z" transform="translate(-1130.264 -428.28)"/><path class="q" d="M1176.8,449.227l-2.077,1.205-2.374-1.362,2.084-1.209Z" transform="translate(-1129.075 -427.596)"/><path class="q" d="M1176.2,448.878l2.368,1.366-2.077,1.205-2.374-1.362Z" transform="translate(-1127.887 -426.913)"/><path class="q" d="M1153.69,440.185l-2.374-1.362,2.084-1.209,2.368,1.366Z" transform="translate(-1143.227 -434.49)"/><path class="q" d="M1157.533,440l-2.077,1.205-2.374-1.362,2.084-1.209Z" transform="translate(-1142.039 -433.806)"/><path class="q" d="M1154.847,440.856l2.083-1.209,2.368,1.366-2.077,1.2Z" transform="translate(-1140.851 -433.123)"/><path class="q" d="M1161.064,442.029l-2.077,1.205-2.374-1.362,2.083-1.209Z" transform="translate(-1139.663 -432.439)"/><path class="q" d="M1162.83,443.046l-2.077,1.2-2.375-1.362,2.083-1.209Z" transform="translate(-1138.475 -431.755)"/><path class="q" d="M1164.6,444.062l-2.077,1.2-2.375-1.362,2.084-1.209Z" transform="translate(-1137.287 -431.071)"/><path class="q" d="M1166.362,445.078l-2.076,1.205-2.375-1.362,2.084-1.209Z" transform="translate(-1136.099 -430.388)"/><path class="q" d="M1168.128,446.095l-2.077,1.205-2.374-1.362,2.084-1.209Z" transform="translate(-1134.912 -429.704)"/><path class="q" d="M1169.894,447.111l-2.077,1.205-2.374-1.362,2.084-1.209Z" transform="translate(-1133.724 -429.02)"/><path class="q" d="M1171.659,448.128l-2.077,1.2-2.375-1.362,2.084-1.208Z" transform="translate(-1132.536 -428.336)"/><path class="q" d="M1173.426,449.144l-2.077,1.205-2.375-1.362,2.084-1.209Z" transform="translate(-1131.348 -427.652)"/><path class="q" d="M1170.74,450l2.084-1.209,2.368,1.366-2.077,1.205Z" transform="translate(-1130.16 -426.968)"/><path class="q" d="M1174.59,449.811l2.367,1.366-2.077,1.205-2.374-1.362Z" transform="translate(-1128.972 -426.285)"/><path class="q" d="M1152.078,441.118l-2.374-1.362,2.084-1.209,2.368,1.366Z" transform="translate(-1144.312 -433.862)"/><path class="q" d="M1151.469,440.773l2.084-1.209,2.368,1.365-2.077,1.205Z" transform="translate(-1143.124 -433.178)"/><path class="q" d="M1153.235,441.789l2.084-1.209,2.368,1.366-2.077,1.205Z" transform="translate(-1141.936 -432.495)"/><path class="q" d="M1155,442.806l2.084-1.209,2.367,1.366-2.077,1.205Z" transform="translate(-1140.748 -431.811)"/><path class="q" d="M1156.767,443.822l2.084-1.209,2.368,1.366-2.077,1.205Z" transform="translate(-1139.56 -431.127)"/><path class="q" d="M1158.533,444.838l2.084-1.209,2.368,1.366-2.077,1.2Z" transform="translate(-1138.372 -430.443)"/><path class="q" d="M1160.3,445.855l2.084-1.209,2.368,1.366-2.077,1.2Z" transform="translate(-1137.184 -429.759)"/><path class="q" d="M1162.065,446.872l2.084-1.209,2.368,1.366-2.077,1.205Z" transform="translate(-1135.996 -429.076)"/><path class="q" d="M1163.831,447.888l2.084-1.209,2.368,1.366-2.077,1.2Z" transform="translate(-1134.808 -428.392)"/><path class="q" d="M1165.6,448.9l2.084-1.209,2.368,1.366-2.077,1.2Z" transform="translate(-1133.62 -427.708)"/><path class="q" d="M1167.362,449.921l2.084-1.209,2.368,1.366-2.078,1.205Z" transform="translate(-1132.432 -427.024)"/><path class="q" d="M1169.128,450.938l2.084-1.209,2.368,1.366-2.077,1.2Z" transform="translate(-1131.244 -426.34)"/><path class="q" d="M1172.978,450.745l2.368,1.366-2.077,1.2-2.374-1.362Z" transform="translate(-1130.056 -425.657)"/><path class="q" d="M1150.466,442.052l-2.375-1.362,2.084-1.209,2.368,1.366Z" transform="translate(-1145.396 -433.234)"/><path class="q" d="M1149.858,441.706l2.084-1.209,2.367,1.366-2.077,1.2Z" transform="translate(-1144.208 -432.55)"/><path class="q" d="M1151.624,442.723l2.084-1.209,2.367,1.365L1154,444.085Z" transform="translate(-1143.02 -431.866)"/><path class="q" d="M1153.39,443.739l2.084-1.209,2.368,1.366-2.077,1.2Z" transform="translate(-1141.832 -431.183)"/><path class="q" d="M1155.156,444.756l2.083-1.209,2.368,1.366-2.077,1.2Z" transform="translate(-1140.644 -430.499)"/><path class="q" d="M1156.921,445.772l2.084-1.209,2.368,1.366-2.077,1.205Z" transform="translate(-1139.456 -429.815)"/><path class="q" d="M1158.687,446.789l2.084-1.209,2.368,1.366-2.077,1.205Z" transform="translate(-1138.268 -429.131)"/><path class="q" d="M1160.453,447.805l2.083-1.209,2.368,1.365-2.077,1.205Z" transform="translate(-1137.08 -428.447)"/><path class="q" d="M1162.219,448.822l2.084-1.209,2.368,1.366-2.077,1.205Z" transform="translate(-1135.892 -427.764)"/><path class="q" d="M1163.985,449.838l2.084-1.209,2.368,1.366-2.078,1.205Z" transform="translate(-1134.704 -427.08)"/><path class="q" d="M1165.75,450.855l2.084-1.209,2.368,1.366-2.077,1.205Z" transform="translate(-1133.516 -426.396)"/><path class="q" d="M1167.516,451.871l2.084-1.209,2.368,1.366-2.077,1.205Z" transform="translate(-1132.328 -425.712)"/><path class="q" d="M1171.366,451.679l2.368,1.366-2.077,1.205-2.375-1.362Z" transform="translate(-1131.141 -425.029)"/><path class="q" d="M1148.564,440.415l2.367,1.365-2.077,1.205-2.374-1.362Z" transform="translate(-1146.48 -432.606)"/><path class="q" d="M1152.7,442.8,1150.62,444l-2.375-1.362,2.084-1.209Z" transform="translate(-1145.292 -431.922)"/><path class="q" d="M1154.463,443.813l-2.077,1.2-2.374-1.362,2.084-1.209Z" transform="translate(-1144.104 -431.238)"/><path class="q" d="M1156.229,444.83l-2.077,1.205-2.374-1.362,2.083-1.209Z" transform="translate(-1142.916 -430.555)"/><path class="q" d="M1157.995,445.846l-2.077,1.205-2.374-1.362,2.083-1.209Z" transform="translate(-1141.728 -429.871)"/><path class="q" d="M1159.761,446.863l-2.077,1.205-2.375-1.362,2.084-1.209Z" transform="translate(-1140.54 -429.187)"/><path class="q" d="M1159.159,446.514l2.953,1.7h0l.582.335,2.371,1.366h0l1.2.694,1.748,1.007h0l1.864,1.075,3.457,1.991-2.077,1.2-3.614-2.079-1.714-.983,0,0-1.8-1.035-1.158-.664h0l-2.336-1.344-.62-.355h0l-2.954-1.7Z" transform="translate(-1139.352 -428.503)"/><path class="q" d="M1170.356,452.962l-2.077,1.205L1165.9,452.8l2.084-1.209Z" transform="translate(-1133.413 -425.084)"/><path class="q" d="M1172.122,453.978l-2.077,1.205-2.375-1.362,2.084-1.209Z" transform="translate(-1132.225 -424.4)"/></g><g transform="translate(44.819 25.636)"><path class="q" d="M1179.261,451.184l2.084-1.209,2.368,1.366-2.077,1.2Z" transform="translate(-1165.781 -449.975)"/><path class="q" d="M1181.027,452.2l2.084-1.209,2.368,1.366-2.077,1.205Z" transform="translate(-1164.593 -449.292)"/><path class="q" d="M1182.792,453.217l2.084-1.209,2.368,1.366-2.077,1.206Z" transform="translate(-1163.405 -448.608)"/><path class="q" d="M1182.1,452.275l-2.077,1.205-2.375-1.362,2.084-1.209Z" transform="translate(-1166.865 -449.347)"/><path class="q" d="M1183.866,453.291l-2.077,1.205-2.375-1.362,2.084-1.209Z" transform="translate(-1165.677 -448.664)"/><path class="q" d="M1185.632,454.308l-2.077,1.2-2.374-1.362,2.084-1.209Z" transform="translate(-1164.489 -447.98)"/><path class="q" d="M1180.489,453.209l-2.077,1.2-2.375-1.362,2.084-1.209Z" transform="translate(-1167.949 -448.719)"/><path class="q" d="M1182.255,454.225l-2.077,1.2-2.375-1.362,2.084-1.209Z" transform="translate(-1166.761 -448.035)"/><path class="q" d="M1184.021,455.242l-2.077,1.205-2.375-1.362,2.084-1.209Z" transform="translate(-1165.574 -447.352)"/><path class="q" d="M1174.425,453.985l2.084-1.209,2.368,1.366-2.077,1.205Z" transform="translate(-1169.034 -448.091)"/><path class="q" d="M1176.191,455l2.084-1.209,2.368,1.366-2.077,1.205Z" transform="translate(-1167.846 -447.407)"/><path class="q" d="M1177.957,456.018l2.084-1.209,2.368,1.366-2.077,1.2Z" transform="translate(-1166.658 -446.724)"/><path class="q" d="M1172.814,454.919l2.084-1.209,2.368,1.366-2.077,1.2Z" transform="translate(-1170.118 -447.463)"/><path class="q" d="M1174.58,455.935l2.083-1.209,2.368,1.366-2.077,1.205Z" transform="translate(-1168.93 -446.779)"/><path class="q" d="M1176.345,456.952l2.084-1.209,2.368,1.366-2.077,1.205Z" transform="translate(-1167.742 -446.096)"/><path class="q" d="M1175.653,456.01l-2.077,1.205-2.374-1.362,2.083-1.209Z" transform="translate(-1171.202 -446.835)"/><path class="q" d="M1177.419,457.026l-2.076,1.2-2.375-1.362,2.084-1.209Z" transform="translate(-1170.014 -446.151)"/></g></g><g transform="translate(36.973 84.089)"><path class="q" d="M1166.952,435l16.369-9.5a2.235,2.235,0,0,1,2.243,0l38.839,22.416a.987.987,0,0,1,0,1.708l-16.006,9.292a2.66,2.66,0,0,1-2.666,0l-38.778-22.383A.885.885,0,0,1,1166.952,435Z" transform="translate(-1166.511 -425.199)"/><path class="r" d="M1166.954,432.284l38.778,22.383a2.66,2.66,0,0,0,2.666,0l16.006-9.292a.973.973,0,0,0,.49-.85v2.011l0,0a.973.973,0,0,1-.488.833l-16.006,9.292a2.66,2.66,0,0,1-2.666,0l-38.778-22.383a.877.877,0,0,1-.442-.771h0v-1.985A.872.872,0,0,0,1166.954,432.284Z" transform="translate(-1166.511 -420.946)"/><path class="p" d="M1166.954,432.284l38.778,22.383a2.671,2.671,0,0,0,1.218.35v1.994a2.649,2.649,0,0,1-1.218-.35l-38.778-22.383a.877.877,0,0,1-.442-.771h0v-1.985A.872.872,0,0,0,1166.954,432.284Z" transform="translate(-1166.511 -420.946)"/></g><g transform="translate(49.695 75.512)"><path class="o" d="M1204.3,438.981l-30.187-17.468v14.955l30.187,17.456Z" transform="translate(-1174.117 -419.101)"/><path class="r" d="M1178.32,420.072l-4.2,2.412,30.187,17.468,4.213-2.419Z" transform="translate(-1174.117 -420.072)"/><path class="r" d="M1196.376,430.51l-4.213,2.419v14.943l4.213-2.447Z" transform="translate(-1161.977 -413.049)"/></g><g transform="translate(19.186)"><path class="s" d="M1155.878,376.011l91.756,53.218,0,67.521-91.754-53.431Z" transform="translate(-1155.878 -374.2)"/><path class="r" d="M1210.733,408.572l3.051-1.853v67.521l-3.053,1.854Z" transform="translate(-1118.977 -353.543)"/><path class="q" d="M1155.878,376.739l3.125-1.811,91.682,53.175-3.051,1.854Z" transform="translate(-1155.878 -374.928)"/><path class="p" d="M1155.878,376.011v67.308l91.753,53.43,0-67.521Zm89.581,116.96-87.41-50.9V379.783l87.411,50.7Z" transform="translate(-1155.877 -374.2)"/></g></g><path class="t" d="M1147,433.456c-.952,9.643-8.064,16.836-15.889,16.065s-13.4-9.215-12.443-18.86,8.064-16.838,15.889-16.065S1147.955,423.811,1147,433.456Z" transform="translate(-528.146 950.058)"/><path class="u" d="M1143.736,444.207s3.4.818,4.58.937,5.647,1.047,7.474.492-1.606-1.766-2.45-2.394-.806-2.2,1.037-2.762,6.013-.294,8.218-.607-2.191-6.994-5.784-7.613a15.22,15.22,0,0,0-9.846,1.328c-3.064,1.512-4.737,4.063-6.164,4.558Z" transform="translate(-513.188 961.79)"/><path class="g" d="M1152.612,433.843l-23.261,5.833-1.167,14.777,27.458-9.409C1156.212,439.81,1152.612,433.843,1152.612,433.843Z" transform="translate(-521.675 963.044)"/><path class="g" d="M1109.642,437.582s-6.432,8.1,0,19.266c0,0,4.5,6.222,16.849.132Z" transform="translate(-536.071 965.56)"/><path class="v" d="M1127.558,431.931s10.025-.684,17.893,4.816a6.011,6.011,0,0,0,2.156,2.7c1.574,1.049,9.374,4.177,9.374,4.177s-3.439,45.786.508,68.078c0,0-16.951,13.236-43.424,0,0,0-3.871-56.215-5.573-70.3C1108.492,441.4,1112.9,435.945,1127.558,431.931Z" transform="translate(-534.921 961.739)"/><g transform="translate(540.752 1438.769)"><path class="a" d="M1136.342,488.143l-47.47-27.443,15.981,46.292,47.474,27.375Z" transform="translate(-1088.872 -457.658)"/><path class="b" d="M1094.114,458.881l-5.242,3.042,47.47,27.443,5.3-3.079Z" transform="translate(-1088.872 -458.881)"/><path class="c" d="M1122.555,475.265l-5.3,3.08,15.985,46.224,5.36-3.088Z" transform="translate(-1069.781 -447.859)"/></g><path class="u" d="M1161.249,454.57s2.591-2.609,3.583-3.354,4.478-4.031,6.433-4.466-1.385,2.952-1.789,4.013,2-.846,3.829-1.532a8.924,8.924,0,0,1,6.221.214c4.495,1.6,4.275,10.587.6,9.524-6.044-1.748-8.762,3.048-12.368,4.058a36.031,36.031,0,0,1-5.11.935Z" transform="translate(-499.431 971.701)"/><path class="g" d="M1140.841,438.912l19.633,26.012,20.4-6.024s4.378,5.518,2.958,11.368l-27.23,10.6-22.128-24.346S1127.063,441.08,1140.841,438.912Z" transform="translate(-518.782 966.455)"/><path class="l" d="M1140.9,409.648s1.512,3.623-5.714,4.6c-7.206.98-16.153,4.577-18.5,12.2-1.5,4.876.239,10.1,2.687,14.359a27.029,27.029,0,0,0,2.87,4.18,15.578,15.578,0,0,0,10.649-1.832,18.408,18.408,0,0,0,5.732-6.987s4.3,1.791,5.644-1.791c.987-2.633,4.095-3.287,5.786-4.725C1150.057,429.652,1159.814,413.709,1140.9,409.648Z" transform="translate(-529.782 946.768)"/><g transform="translate(785.497 1458.472)"><g transform="translate(0 14.376)"><path class="a" d="M1258.679,501.231,1235.188,487.6v8.789l23.493,13.6Z" transform="translate(-1235.188 -473.643)"/><path class="b" d="M1259.468,479.254l-24.28,13.953,23.491,13.636,24.313-13.973Z" transform="translate(-1235.188 -479.254)"/><path class="c" d="M1273.546,487.394l-24.314,13.974,0,8.751,24.312-14.066Z" transform="translate(-1225.741 -473.779)"/></g><path class="a" d="M1258.679,492.637,1235.188,479v8.789l23.493,13.6Z" transform="translate(-1235.188 -465.049)"/><path class="b" d="M1259.468,470.66l-24.28,13.953,23.491,13.636,24.313-13.973Z" transform="translate(-1235.188 -470.66)"/><path class="c" d="M1273.546,478.8l-24.314,13.973,0,8.751,24.312-14.066Z" transform="translate(-1225.741 -465.185)"/><path class="w" d="M1255.72,475.194l2.285,4.878,2.284,4.88-8.432-1.307-8.429-1.307,6.146-3.572Z" transform="translate(-1229.645 -467.61)"/></g><g transform="translate(811.205 1312.5)"><path class="x" d="M1291.547,401.4,1261,383.775a2.883,2.883,0,0,0-3.057.122l0,0-6.708,3.874,3.118,4.229,1.162,1.331V423.6a5.05,5.05,0,0,0,2.522,4.371l22.864,13.218.234,1.271,4.665,6.539,7.176-4.219.036-.022.049-.027v0a2.3,2.3,0,0,0,1.094-1.967V405.914A5.2,5.2,0,0,0,1291.547,401.4Z" transform="translate(-1250.104 -383.394)"/><path class="y" d="M1284.859,403.967l-30.91-17.836a2.262,2.262,0,0,0-3.392,1.96v37a5.045,5.045,0,0,0,2.521,4.367l30.907,17.87a2.319,2.319,0,0,0,3.479-2.009l0-36.845A5.2,5.2,0,0,0,1284.859,403.967Z" transform="translate(-1250.557 -381.758)"/><g transform="translate(35.691 20.812)"><path class="a" d="M1271.941,422.6l-.044.027,0-.005C1271.909,422.609,1271.925,422.606,1271.941,422.6Z" transform="translate(-1271.894 -377.834)"/><path class="z" d="M1273.084,438.586l0-36.845a5.137,5.137,0,0,0-.355-1.775l7.171-4.13a5.158,5.158,0,0,1,.324,1.708v36.843a2.289,2.289,0,0,1-1.1,1.965v.005l-.047.027-.037.022-7.116,4.183A2.3,2.3,0,0,0,1273.084,438.586Z" transform="translate(-1271.869 -395.836)"/></g></g><g transform="translate(730.637 1252.301)"><path class="aa" d="M1243.381,365.415l-30.549-17.629a2.883,2.883,0,0,0-3.058.122l0,0-6.707,3.874,3.118,4.229,1.163,1.332v30.266a5.049,5.049,0,0,0,2.521,4.369l22.866,13.219.234,1.271,4.665,6.539,7.176-4.219.037-.022.049-.027v-.005a2.293,2.293,0,0,0,1.092-1.965l0-36.845A5.2,5.2,0,0,0,1243.381,365.415Z" transform="translate(-1201.937 -347.405)"/><path class="ab" d="M1236.693,367.977l-30.91-17.835a2.262,2.262,0,0,0-3.392,1.96v37a5.046,5.046,0,0,0,2.521,4.369l30.907,17.868a2.318,2.318,0,0,0,3.479-2.007l0-36.845A5.207,5.207,0,0,0,1236.693,367.977Z" transform="translate(-1202.391 -345.769)"/><g transform="translate(35.691 20.812)"><path class="a" d="M1223.775,386.607l-.044.027,0-.007C1223.743,386.619,1223.76,386.615,1223.775,386.607Z" transform="translate(-1223.728 -341.845)"/><path class="ac" d="M1224.918,402.6l0-36.845a5.133,5.133,0,0,0-.355-1.775l7.171-4.13a5.16,5.16,0,0,1,.324,1.706V398.4a2.292,2.292,0,0,1-1.1,1.965v.005l-.047.027-.037.022-7.116,4.182A2.293,2.293,0,0,0,1224.918,402.6Z" transform="translate(-1223.703 -359.847)"/></g></g><g transform="translate(806.653 1258.094)"><path class="ad" d="M1274.849,362.737l-20.132-11.617a1.9,1.9,0,0,0-2.016.08v0l-4.421,2.553,2.056,2.787.764.878v19.947a3.329,3.329,0,0,0,1.663,2.88l15.068,8.711.156.838,3.075,4.309,4.728-2.78.025-.015.032-.018v0a1.516,1.516,0,0,0,.721-1.3V365.71A3.428,3.428,0,0,0,1274.849,362.737Z" transform="translate(-1247.537 -350.868)"/><path class="ae" d="M1270.443,364.426l-20.372-11.754a1.49,1.49,0,0,0-2.235,1.291v24.385a3.327,3.327,0,0,0,1.661,2.88L1269.866,393a1.529,1.529,0,0,0,2.293-1.325V367.4A3.431,3.431,0,0,0,1270.443,364.426Z" transform="translate(-1247.836 -349.791)"/><g transform="translate(23.52 13.716)"><path class="a" d="M1261.929,376.7l-.028.018,0-.005Z" transform="translate(-1261.897 -347.204)"/><path class="af" d="M1262.682,387.242V362.959a3.381,3.381,0,0,0-.232-1.169l4.725-2.722a3.413,3.413,0,0,1,.214,1.126v24.281a1.514,1.514,0,0,1-.723,1.3v0l-.03.018-.025.015-4.688,2.755A1.511,1.511,0,0,0,1262.682,387.242Z" transform="translate(-1261.879 -359.068)"/></g></g><path class="b" d="M1265.086,364.73a12.883,12.883,0,0,0-4.48-4.727c-1.624-.937-3.248-1.163-4.491-.452-2.206,1.258-2.457,5.038-.756,8.864l-5.535,3.153,1.613,2.792,5.533-3.153a12.087,12.087,0,0,0,3.6,3.372c1.619.935,3.241,1.161,4.484.455C1267.541,373.619,1267.555,369.005,1265.086,364.73Zm-1.641,7.512a2.886,2.886,0,0,1-2.872-.291,8.239,8.239,0,0,1-2.864-3.021c-1.579-2.735-1.571-5.686.018-6.587a2.886,2.886,0,0,1,2.872.291,8.23,8.23,0,0,1,2.865,3.021C1265.042,368.385,1265.034,371.337,1263.445,372.242Z" transform="translate(-439.845 912.786)"/><g transform="translate(737.127 1271.807)"><path class="b" d="M1209.9,359.427a2.959,2.959,0,0,0-.506,2.019l-.014,4.421v.114q0,1.262-.808,1.352a4.23,4.23,0,0,1-2.3-.771l-.008,3.078a7.79,7.79,0,0,1,2.293,1.89,3.8,3.8,0,0,1,.8,2.4l-.013,4.371a6.248,6.248,0,0,0,.494,2.608,6.571,6.571,0,0,0,1.577,2.123,16.663,16.663,0,0,0,2.991,2.106l.007-2.914a4.891,4.891,0,0,1-1.667-1.487,3.335,3.335,0,0,1-.433-1.74l.011-4.187v-.164c0-1.671-.913-3.188-2.768-4.578v-.164c1.832.749,2.753.234,2.785-1.536l.012-4.187c0-.676.155-1.081.452-1.229s.85.008,1.661.447l.009-2.914a11.713,11.713,0,0,0-2.974-1.337A1.577,1.577,0,0,0,1209.9,359.427Z" transform="translate(-1206.271 -359.066)"/><path class="b" d="M1221.151,375.911a3.6,3.6,0,0,1-.779-2.27v-.112l.012-4.421a5.931,5.931,0,0,0-1.134-3.677,12.928,12.928,0,0,0-3.944-3.15l-.007,2.912a4.927,4.927,0,0,1,1.668,1.477,3.269,3.269,0,0,1,.433,1.741l-.012,4.185a6.022,6.022,0,0,0,2.794,4.757v.166a2.7,2.7,0,0,0-2.083-.207c-.483.236-.728.763-.73,1.6v.124l-.011,4.185c0,.677-.147,1.1-.442,1.244s-.86-.012-1.671-.45l-.008,2.914c1.865,1.077,3.178,1.537,3.948,1.4s1.148-.93,1.153-2.365l.012-4.371c0-.913.273-1.4.791-1.485a4.042,4.042,0,0,1,2.3.759l.008-3.078A7.808,7.808,0,0,1,1221.151,375.911Z" transform="translate(-1200.24 -356.903)"/></g><g transform="translate(815.126 1339.123)"><path class="q" d="M1252.9,400.9l9.575,10.4.007-2.649-6.6-6.943,6.618.3.008-2.666-9.6-.031Z" transform="translate(-1252.901 -399.31)"/><path class="q" d="M1259.214,413.473l2.672,1.543,5.318-13.19-2.679-1.547Z" transform="translate(-1248.654 -398.658)"/><path class="q" d="M1264.563,402.737l-.008,2.666,6.605,7.335-6.624-.691-.007,2.649,9.61.679,0-1.593Z" transform="translate(-1245.079 -397.004)"/></g><g transform="translate(656.679 1309.939)"><g transform="translate(7.569 4.236)"><path class="ag" d="M1162.7,384.395v1.791l7.522,4.338v-1.791Z" transform="translate(-1162.702 -384.395)"/><path class="ah" d="M1162.7,386.35v1.791l7.522,4.339v-1.791Z" transform="translate(-1162.702 -383.079)"/><path class="ah" d="M1162.7,388.306V390.1l7.522,4.339v-1.791Z" transform="translate(-1162.702 -381.764)"/><path class="ah" d="M1215.309,422.4V420.6l-46.422-26.776v1.791Z" transform="translate(-1158.542 -378.049)"/><path class="ah" d="M1162.7,390.261v1.791l7.522,4.339V394.6Z" transform="translate(-1162.702 -380.449)"/><path class="ah" d="M1162.7,392.217v1.791l7.522,4.339v-1.791Z" transform="translate(-1162.702 -379.133)"/><path class="y" d="M1215.309,424.351V422.56l-46.422-26.777v1.791Z" transform="translate(-1158.542 -376.734)"/><path class="ah" d="M1162.7,398.083v1.791l7.522,4.339v-1.791Z" transform="translate(-1162.702 -375.187)"/><path class="ag" d="M1162.7,400.039v1.791l7.522,4.339v-1.791Z" transform="translate(-1162.702 -373.871)"/><path class="ah" d="M1162.7,407.861v1.791l7.522,4.338V412.2Z" transform="translate(-1162.702 -368.609)"/><path class="ah" d="M1162.7,409.816v1.791l7.522,4.339v-1.79Z" transform="translate(-1162.702 -367.294)"/><g transform="translate(10.344 48.489)"><path class="y" d="M1198.173,430.276l-29.287-16.893v1.79l29.287,16.893Z" transform="translate(-1168.886 -413.383)"/><path class="ah" d="M1187.317,424.014V425.8l15.592,8.993v-1.791Z" transform="translate(-1156.487 -406.231)"/></g><g transform="translate(10.344 45.218)"><path class="ah" d="M1183.6,419.915l-14.714-8.487v1.791l14.714,8.487Z" transform="translate(-1168.886 -411.428)"/><path class="ah" d="M1178.605,417.034v1.791l30.165,17.4v-1.791Z" transform="translate(-1162.348 -407.656)"/></g><path class="ah" d="M1194.266,420.2v1.791l3.968,2.289v-1.791Z" transform="translate(-1141.468 -360.308)"/><path class="g" d="M1189.745,415.637l-20.859-12.032V405.4l20.859,12.032Z" transform="translate(-1158.542 -371.472)"/><path class="ah" d="M1181.2,395.063l-12.312-7.1v1.791l12.312,7.1Z" transform="translate(-1158.542 -381.995)"/><g transform="translate(24.2 13.958)"><path class="ah" d="M1195.807,403.49l-18.638-10.75v1.791l18.638,10.75Z" transform="translate(-1177.169 -392.74)"/></g><path class="ah" d="M1187.095,400.42l-13.122-7.569v1.791l13.122,7.569Z" transform="translate(-1155.12 -378.706)"/><g transform="translate(33.518 22.604)"><path class="g" d="M1194.965,404.96l-12.224-7.051V399.7l12.224,7.051Z" transform="translate(-1182.74 -397.909)"/><path class="ah" d="M1190.971,402.656v1.791l9.48,5.468v-1.791Z" transform="translate(-1177.203 -394.715)"/></g><path class="g" d="M1170.336,392.709v1.79l9.887,5.7v-1.79Z" transform="translate(-1157.566 -378.802)"/><path class="ah" d="M1205.868,413.2l-28.7-16.554v1.791l28.7,16.554Z" transform="translate(-1152.969 -376.15)"/><path class="ah" d="M1192.046,411.1l-18.755-10.818v1.791l18.755,10.818Z" transform="translate(-1155.578 -373.709)"/><path class="ah" d="M1200.313,415.867l-14.887-8.587v1.79l14.887,8.587Z" transform="translate(-1147.415 -369)"/><g transform="translate(32.747 45.056)"><path class="ah" d="M1200.787,422.006l-18.508-10.675v1.791l18.508,10.675Z" transform="translate(-1182.279 -411.331)"/></g><path class="y" d="M1187.317,416.192v1.79l10.08,5.814v-1.79Z" transform="translate(-1146.143 -363.004)"/><path class="ah" d="M1172.516,407.655l-3.63-2.094v1.791l3.63,2.094Z" transform="translate(-1158.542 -370.156)"/><g transform="translate(15.518 38.389)"><path class="ah" d="M1175.121,409.158v1.791l18.857,10.877v-1.791Z" transform="translate(-1169.865 -406.126)"/><path class="ah" d="M1175.692,409.486l-3.713-2.141v1.791l3.713,2.141Z" transform="translate(-1171.979 -407.345)"/></g><path class="ah" d="M1192.6,421.2l-20.624-11.9v1.79l20.624,11.9Z" transform="translate(-1156.461 -367.641)"/></g><g transform="translate(67.6 38.883)"><path class="ah" d="M1198.59,405.108v.493l2.073,1.2V406.3Z" transform="translate(-1198.59 -405.108)"/><path class="ah" d="M1198.59,405.647v.493l2.073,1.2v-.493Z" transform="translate(-1198.59 -404.746)"/><path class="ah" d="M1198.59,406.186v.493l2.073,1.2v-.493Z" transform="translate(-1198.59 -404.383)"/><path class="ah" d="M1213.086,415.579v-.493l-12.791-7.378v.493Z" transform="translate(-1197.444 -403.36)"/><path class="ah" d="M1198.59,406.725v.493l2.073,1.2v-.493Z" transform="translate(-1198.59 -404.021)"/><path class="ah" d="M1198.59,407.264v.493l2.073,1.2v-.493Z" transform="translate(-1198.59 -403.658)"/><path class="ah" d="M1213.086,416.118v-.493l-12.791-7.378v.493Z" transform="translate(-1197.444 -402.997)"/><path class="ah" d="M1198.59,408.88v.493l2.073,1.2v-.493Z" transform="translate(-1198.59 -402.571)"/><path class="ah" d="M1198.59,409.419v.493l2.073,1.2v-.493Z" transform="translate(-1198.59 -402.209)"/><path class="ah" d="M1198.59,411.574v.493l2.073,1.2v-.493Z" transform="translate(-1198.59 -400.759)"/><path class="ah" d="M1198.59,412.113v.493l2.073,1.2v-.494Z" transform="translate(-1198.59 -400.396)"/><g transform="translate(2.85 13.36)"><path class="ah" d="M1208.364,417.75l-8.07-4.655v.493l8.07,4.655Z" transform="translate(-1200.294 -413.096)"/><path class="ah" d="M1205.373,416.025v.493l4.3,2.478V418.5Z" transform="translate(-1196.878 -411.125)"/></g><g transform="translate(2.85 12.459)"><path class="ah" d="M1204.349,414.9l-4.054-2.338v.493l4.054,2.338Z" transform="translate(-1200.294 -412.557)"/><path class="ah" d="M1202.972,414.1v.493l8.312,4.794V418.9Z" transform="translate(-1198.493 -411.518)"/></g><path class="ah" d="M1207.287,414.974v.493l1.094.631V415.6Z" transform="translate(-1192.74 -398.471)"/><path class="ah" d="M1206.042,413.717l-5.748-3.315v.493l5.748,3.315Z" transform="translate(-1197.444 -401.547)"/><path class="ah" d="M1203.687,408.048l-3.392-1.957v.493l3.392,1.957Z" transform="translate(-1197.444 -404.447)"/><g transform="translate(6.668 3.846)"><path class="ah" d="M1207.712,410.37l-5.135-2.962v.493l5.135,2.962Z" transform="translate(-1202.577 -407.408)"/></g><path class="ah" d="M1205.311,409.524l-3.615-2.085v.493l3.615,2.086Z" transform="translate(-1196.501 -403.541)"/><g transform="translate(9.235 6.228)"><path class="ah" d="M1207.48,410.775l-3.369-1.943v.493l3.369,1.943Z" transform="translate(-1204.112 -408.832)"/><path class="ah" d="M1206.38,410.14v.493l2.612,1.506v-.493Z" transform="translate(-1202.586 -407.952)"/></g><path class="ah" d="M1200.694,407.4v.493l2.724,1.571v-.493Z" transform="translate(-1197.176 -403.567)"/><path class="ah" d="M1210.484,413.046l-7.907-4.561v.493l7.907,4.561Z" transform="translate(-1195.909 -402.837)"/><path class="ah" d="M1206.676,412.466l-5.168-2.981v.493l5.168,2.981Z" transform="translate(-1196.628 -402.164)"/><path class="ah" d="M1208.954,413.78l-4.1-2.366v.493l4.1,2.366Z" transform="translate(-1194.379 -400.866)"/><g transform="translate(9.023 12.415)"><path class="ah" d="M1209.084,415.472l-5.1-2.941v.493l5.1,2.942Z" transform="translate(-1203.985 -412.53)"/></g><path class="ah" d="M1205.373,413.87v.493l2.778,1.6v-.493Z" transform="translate(-1194.028 -399.214)"/><path class="ah" d="M1201.295,411.517l-1-.577v.493l1,.577Z" transform="translate(-1197.444 -401.185)"/><g transform="translate(4.276 10.578)"><path class="ah" d="M1202.012,411.931v.493l5.2,3v-.493Z" transform="translate(-1200.564 -411.096)"/><path class="ah" d="M1202.17,412.022l-1.023-.59v.493l1.023.59Z" transform="translate(-1201.146 -411.432)"/></g><path class="ah" d="M1206.83,415.249l-5.683-3.278v.493l5.683,3.278Z" transform="translate(-1196.871 -400.492)"/></g><g transform="translate(67.6 54.133)"><path class="ah" d="M1198.59,414.225v.494l2.073,1.2v-.493Z" transform="translate(-1198.59 -414.225)"/><path class="ah" d="M1198.59,414.764v.493l2.073,1.2v-.493Z" transform="translate(-1198.59 -413.863)"/><path class="ah" d="M1198.59,415.3v.493l2.073,1.2V416.5Z" transform="translate(-1198.59 -413.5)"/><path class="ah" d="M1213.086,424.7V424.2l-12.791-7.378v.494Z" transform="translate(-1197.444 -412.477)"/><path class="ah" d="M1198.59,415.842v.493l2.073,1.2v-.493Z" transform="translate(-1198.59 -413.138)"/><path class="ah" d="M1198.59,416.381v.493l2.073,1.2v-.494Z" transform="translate(-1198.59 -412.775)"/><path class="ah" d="M1213.086,425.235v-.493l-12.791-7.378v.493Z" transform="translate(-1197.444 -412.114)"/><path class="ah" d="M1198.59,418v.493l2.073,1.2v-.493Z" transform="translate(-1198.59 -411.688)"/><path class="ah" d="M1198.59,418.536v.493l2.073,1.2v-.493Z" transform="translate(-1198.59 -411.326)"/><path class="ah" d="M1198.59,420.691v.493l2.073,1.2v-.493Z" transform="translate(-1198.59 -409.876)"/><path class="ah" d="M1198.59,421.23v.493l2.073,1.2v-.493Z" transform="translate(-1198.59 -409.513)"/><g transform="translate(2.85 13.361)"><path class="ah" d="M1208.364,426.867l-8.07-4.655v.494l8.07,4.654Z" transform="translate(-1200.294 -422.213)"/><path class="ah" d="M1205.373,425.142v.493l4.3,2.478v-.493Z" transform="translate(-1196.878 -420.242)"/></g><g transform="translate(2.85 12.459)"><path class="ah" d="M1204.349,424.013l-4.054-2.339v.493l4.054,2.338Z" transform="translate(-1200.294 -421.674)"/><path class="ah" d="M1202.972,423.219v.493l8.312,4.794v-.493Z" transform="translate(-1198.493 -420.635)"/></g><path class="ah" d="M1207.287,424.091v.493l1.094.631v-.493Z" transform="translate(-1192.74 -407.588)"/><path class="ah" d="M1206.042,422.834l-5.748-3.315v.493l5.748,3.315Z" transform="translate(-1197.444 -410.664)"/><path class="ah" d="M1203.687,417.165l-3.392-1.957v.493l3.392,1.957Z" transform="translate(-1197.444 -413.564)"/><g transform="translate(6.668 3.846)"><path class="ah" d="M1207.712,419.487l-5.135-2.962v.493l5.135,2.962Z" transform="translate(-1202.577 -416.525)"/></g><path class="ah" d="M1205.311,418.641l-3.615-2.085v.493l3.615,2.086Z" transform="translate(-1196.501 -412.658)"/><g transform="translate(9.235 6.229)"><path class="ah" d="M1207.48,419.892l-3.369-1.943v.493l3.369,1.943Z" transform="translate(-1204.112 -417.949)"/><path class="ah" d="M1206.38,419.257v.493l2.612,1.507v-.493Z" transform="translate(-1202.586 -417.069)"/></g><path class="ah" d="M1200.694,416.516v.494l2.724,1.571v-.493Z" transform="translate(-1197.176 -412.684)"/><path class="ah" d="M1210.484,422.164l-7.907-4.561v.493l7.907,4.561Z" transform="translate(-1195.909 -411.954)"/><path class="ah" d="M1206.676,421.583l-5.168-2.981v.493l5.168,2.981Z" transform="translate(-1196.628 -411.281)"/><path class="ah" d="M1208.954,422.9l-4.1-2.366v.493l4.1,2.366Z" transform="translate(-1194.379 -409.983)"/><g transform="translate(9.023 12.415)"><path class="ah" d="M1209.084,424.589l-5.1-2.942v.493l5.1,2.942Z" transform="translate(-1203.985 -421.647)"/></g><path class="ah" d="M1205.373,422.987v.493l2.778,1.6v-.493Z" transform="translate(-1194.028 -408.331)"/><path class="ah" d="M1201.295,420.634l-1-.577v.493l1,.577Z" transform="translate(-1197.444 -410.302)"/><g transform="translate(4.276 10.578)"><path class="ah" d="M1202.012,421.048v.493l5.2,3v-.493Z" transform="translate(-1200.564 -420.213)"/><path class="ah" d="M1202.17,421.139l-1.023-.59v.493l1.023.59Z" transform="translate(-1201.146 -420.549)"/></g><path class="ah" d="M1206.83,424.366l-5.683-3.278v.493l5.683,3.278Z" transform="translate(-1196.871 -409.609)"/></g><g transform="translate(67.6 69.384)"><path class="ah" d="M1198.59,423.342v.493l2.073,1.2v-.493Z" transform="translate(-1198.59 -423.342)"/><path class="ah" d="M1198.59,423.881v.493l2.073,1.2v-.493Z" transform="translate(-1198.59 -422.98)"/><path class="ah" d="M1198.59,424.42v.493l2.073,1.2v-.493Z" transform="translate(-1198.59 -422.617)"/><path class="ah" d="M1213.086,433.813v-.493l-12.791-7.378v.493Z" transform="translate(-1197.444 -421.594)"/><path class="ah" d="M1198.59,424.959v.493l2.073,1.2v-.493Z" transform="translate(-1198.59 -422.255)"/><path class="ah" d="M1198.59,425.5v.494l2.073,1.2v-.493Z" transform="translate(-1198.59 -421.893)"/><path class="ah" d="M1213.086,434.352v-.493l-12.791-7.378v.493Z" transform="translate(-1197.444 -421.231)"/><path class="ah" d="M1198.59,427.114v.493l2.073,1.2v-.493Z" transform="translate(-1198.59 -420.805)"/><path class="ah" d="M1198.59,427.653v.493l2.073,1.2v-.493Z" transform="translate(-1198.59 -420.443)"/><path class="ah" d="M1198.59,429.808v.493l2.073,1.2V431Z" transform="translate(-1198.59 -418.993)"/><path class="ah" d="M1198.59,430.347v.493l2.073,1.2v-.493Z" transform="translate(-1198.59 -418.63)"/><g transform="translate(2.85 13.361)"><path class="ah" d="M1208.364,435.984l-8.07-4.655v.493l8.07,4.655Z" transform="translate(-1200.294 -431.33)"/><path class="ah" d="M1205.373,434.259v.493l4.3,2.478v-.493Z" transform="translate(-1196.878 -429.359)"/></g><g transform="translate(2.85 12.459)"><path class="ah" d="M1204.349,433.13l-4.054-2.339v.493l4.054,2.339Z" transform="translate(-1200.294 -430.791)"/><path class="ah" d="M1202.972,432.336v.493l8.312,4.794v-.494Z" transform="translate(-1198.493 -429.752)"/></g><path class="ah" d="M1207.287,433.208v.493l1.094.631v-.493Z" transform="translate(-1192.74 -416.705)"/><path class="ah" d="M1206.042,431.951l-5.748-3.315v.493l5.748,3.315Z" transform="translate(-1197.444 -419.782)"/><path class="ah" d="M1203.687,426.282l-3.392-1.957v.493l3.392,1.957Z" transform="translate(-1197.444 -422.681)"/><g transform="translate(6.668 3.846)"><path class="ah" d="M1207.712,428.6l-5.135-2.962v.493l5.135,2.962Z" transform="translate(-1202.577 -425.642)"/></g><path class="ah" d="M1205.311,427.758l-3.615-2.085v.493l3.615,2.086Z" transform="translate(-1196.501 -421.775)"/><g transform="translate(9.235 6.228)"><path class="ah" d="M1207.48,429.009l-3.369-1.943v.493l3.369,1.943Z" transform="translate(-1204.112 -427.066)"/><path class="ah" d="M1206.38,428.374v.494l2.612,1.507v-.493Z" transform="translate(-1202.586 -426.186)"/></g><path class="ah" d="M1200.694,425.633v.493l2.724,1.571V427.2Z" transform="translate(-1197.176 -421.801)"/><path class="ah" d="M1210.484,431.28l-7.907-4.561v.493l7.907,4.561Z" transform="translate(-1195.909 -421.071)"/><path class="ah" d="M1206.676,430.7l-5.168-2.981v.493l5.168,2.981Z" transform="translate(-1196.628 -420.398)"/><path class="ah" d="M1208.954,432.014l-4.1-2.366v.494l4.1,2.366Z" transform="translate(-1194.379 -419.1)"/><g transform="translate(9.023 12.415)"><path class="ah" d="M1209.084,433.706l-5.1-2.942v.493l5.1,2.941Z" transform="translate(-1203.985 -430.764)"/></g><path class="ah" d="M1205.373,432.1v.493l2.778,1.6v-.493Z" transform="translate(-1194.028 -417.448)"/><path class="ah" d="M1201.295,429.752l-1-.577v.493l1,.577Z" transform="translate(-1197.444 -419.419)"/><g transform="translate(4.276 10.578)"><path class="ah" d="M1202.012,430.166v.493l5.2,3v-.493Z" transform="translate(-1200.564 -429.33)"/><path class="ah" d="M1202.17,430.256l-1.023-.59v.493l1.023.59Z" transform="translate(-1201.146 -429.666)"/></g><path class="ah" d="M1206.83,433.483l-5.683-3.278v.493l5.683,3.278Z" transform="translate(-1196.871 -418.726)"/></g><g transform="translate(67.6 84.634)"><path class="ah" d="M1198.59,432.459v.493l2.073,1.2v-.493Z" transform="translate(-1198.59 -432.459)"/><path class="ah" d="M1198.59,433v.493l2.073,1.2v-.494Z" transform="translate(-1198.59 -432.097)"/><path class="ah" d="M1198.59,433.537v.493l2.073,1.2v-.493Z" transform="translate(-1198.59 -431.735)"/><path class="ah" d="M1213.086,442.93v-.493l-12.791-7.378v.493Z" transform="translate(-1197.444 -430.711)"/><path class="ah" d="M1198.59,434.076v.493l2.073,1.2v-.493Z" transform="translate(-1198.59 -431.372)"/><path class="ah" d="M1198.59,434.615v.494l2.073,1.2v-.493Z" transform="translate(-1198.59 -431.01)"/><path class="ah" d="M1213.086,443.469v-.493l-12.791-7.378v.493Z" transform="translate(-1197.444 -430.349)"/><path class="ah" d="M1198.59,436.231v.493l2.073,1.2v-.493Z" transform="translate(-1198.59 -429.922)"/><path class="ah" d="M1198.59,436.77v.493l2.073,1.2v-.493Z" transform="translate(-1198.59 -429.56)"/><path class="ah" d="M1207.287,442.325v.493l1.094.631v-.493Z" transform="translate(-1192.74 -425.823)"/><path class="ah" d="M1206.042,441.068l-5.748-3.315v.493l5.748,3.315Z" transform="translate(-1197.444 -428.899)"/><path class="ah" d="M1203.687,435.4l-3.392-1.957v.493l3.392,1.957Z" transform="translate(-1197.444 -431.798)"/><g transform="translate(6.668 3.846)"><path class="ah" d="M1207.712,437.721l-5.135-2.962v.493l5.135,2.962Z" transform="translate(-1202.577 -434.759)"/></g><path class="ah" d="M1205.311,436.875l-3.615-2.085v.493l3.615,2.085Z" transform="translate(-1196.501 -430.892)"/><g transform="translate(9.235 6.228)"><path class="ah" d="M1207.48,438.126l-3.369-1.943v.493l3.369,1.943Z" transform="translate(-1204.112 -436.183)"/><path class="ah" d="M1206.38,437.491v.494l2.612,1.507V439Z" transform="translate(-1202.586 -435.303)"/></g><path class="ah" d="M1200.694,434.75v.493l2.724,1.571v-.493Z" transform="translate(-1197.176 -430.918)"/><path class="ah" d="M1210.484,440.4l-7.907-4.561v.493l7.907,4.561Z" transform="translate(-1195.909 -430.188)"/><path class="ah" d="M1206.676,439.817l-5.168-2.981v.493l5.168,2.981Z" transform="translate(-1196.628 -429.515)"/><path class="ah" d="M1208.954,441.131l-4.1-2.366v.493l4.1,2.366Z" transform="translate(-1194.379 -428.218)"/><g transform="translate(9.023 12.415)"><path class="ah" d="M1209.084,442.823l-5.1-2.941v.493l5.1,2.941Z" transform="translate(-1203.985 -439.881)"/></g><path class="ah" d="M1205.373,441.221v.493l2.778,1.6v-.493Z" transform="translate(-1194.028 -426.566)"/><path class="ah" d="M1201.295,438.868l-1-.577v.493l1,.577Z" transform="translate(-1197.444 -428.536)"/><g transform="translate(4.276 10.578)"><path class="ah" d="M1202.012,439.283v.493l5.2,3v-.493Z" transform="translate(-1200.564 -438.447)"/><path class="ah" d="M1202.17,439.373l-1.023-.59v.493l1.023.59Z" transform="translate(-1201.146 -438.783)"/></g><path class="ah" d="M1206.83,442.6l-5.683-3.278v.493l5.683,3.278Z" transform="translate(-1196.871 -427.843)"/></g><path class="y" d="M1160.929,383.317l-2.479-1.43a.183.183,0,0,0-.273.157v2.967a.4.4,0,0,0,.2.35l2.479,1.433a.186.186,0,0,0,.279-.161V383.68A.42.42,0,0,0,1160.929,383.317Z" transform="translate(-1158.177 -381.863)"/><path class="y" d="M1160.929,385.971l-2.479-1.43a.182.182,0,0,0-.273.157v2.966a.408.408,0,0,0,.2.351l2.479,1.432a.186.186,0,0,0,.279-.161v-2.954A.415.415,0,0,0,1160.929,385.971Z" transform="translate(-1158.177 -380.078)"/><path class="y" d="M1160.929,388.624l-2.479-1.43a.182.182,0,0,0-.273.157v2.966a.4.4,0,0,0,.2.351l2.479,1.432a.186.186,0,0,0,.279-.161v-2.954A.417.417,0,0,0,1160.929,388.624Z" transform="translate(-1158.177 -378.293)"/><path class="y" d="M1160.929,391.277l-2.479-1.43a.182.182,0,0,0-.273.157v2.966a.4.4,0,0,0,.2.351l2.479,1.432a.186.186,0,0,0,.279-.161v-2.954A.417.417,0,0,0,1160.929,391.277Z" transform="translate(-1158.177 -376.508)"/><path class="y" d="M1160.929,393.93l-2.479-1.43a.182.182,0,0,0-.273.157v2.967a.4.4,0,0,0,.2.35l2.479,1.434a.187.187,0,0,0,.279-.162v-2.954A.419.419,0,0,0,1160.929,393.93Z" transform="translate(-1158.177 -374.723)"/><path class="y" d="M1160.929,396.583l-2.479-1.43a.183.183,0,0,0-.273.157v2.967a.4.4,0,0,0,.2.35l2.479,1.434a.186.186,0,0,0,.279-.161v-2.956A.419.419,0,0,0,1160.929,396.583Z" transform="translate(-1158.177 -372.938)"/><path class="y" d="M1160.929,399.236l-2.479-1.43a.183.183,0,0,0-.273.157v2.967a.4.4,0,0,0,.2.35l2.479,1.434a.186.186,0,0,0,.279-.161V399.6A.42.42,0,0,0,1160.929,399.236Z" transform="translate(-1158.177 -371.154)"/><path class="y" d="M1160.929,401.888l-2.479-1.428a.182.182,0,0,0-.273.157v2.966a.409.409,0,0,0,.2.351l2.479,1.432a.186.186,0,0,0,.279-.161v-2.954A.42.42,0,0,0,1160.929,401.888Z" transform="translate(-1158.177 -369.369)"/><path class="y" d="M1160.929,404.543l-2.479-1.43a.182.182,0,0,0-.273.157v2.966a.406.406,0,0,0,.2.351l2.479,1.432a.186.186,0,0,0,.279-.161V404.9A.417.417,0,0,0,1160.929,404.543Z" transform="translate(-1158.177 -367.584)"/><path class="y" d="M1160.929,407.2l-2.479-1.43a.182.182,0,0,0-.273.157v2.966a.4.4,0,0,0,.2.351l2.479,1.432a.186.186,0,0,0,.279-.161v-2.954A.417.417,0,0,0,1160.929,407.2Z" transform="translate(-1158.177 -365.799)"/><path class="y" d="M1160.929,409.849l-2.479-1.43a.182.182,0,0,0-.273.157v2.967a.4.4,0,0,0,.2.35l2.479,1.433a.187.187,0,0,0,.279-.162V410.21A.417.417,0,0,0,1160.929,409.849Z" transform="translate(-1158.177 -364.014)"/><path class="y" d="M1160.929,412.5l-2.479-1.43a.183.183,0,0,0-.273.157V414.2a.4.4,0,0,0,.2.35l2.479,1.434a.187.187,0,0,0,.279-.162v-2.954A.419.419,0,0,0,1160.929,412.5Z" transform="translate(-1158.177 -362.23)"/></g><g class="i" transform="translate(787.758 1334.961)"><path class="b" d="M1236.54,396.822v1.79l7.522,4.339V401.16Z" transform="translate(-1236.54 -396.822)"/><path class="b" d="M1236.54,398.777v1.791l7.522,4.339v-1.791Z" transform="translate(-1236.54 -395.506)"/><path class="b" d="M1236.54,400.733v1.791l7.522,4.339v-1.79Z" transform="translate(-1236.54 -394.191)"/><path class="b" d="M1289.146,434.822v-1.791l-46.423-26.776v1.791Z" transform="translate(-1232.38 -390.476)"/><path class="b" d="M1236.54,402.688v1.791l7.522,4.339v-1.791Z" transform="translate(-1236.54 -392.875)"/><path class="b" d="M1236.54,404.644v1.791l7.522,4.339v-1.791Z" transform="translate(-1236.54 -391.56)"/><path class="b" d="M1289.146,436.778v-1.791l-46.423-26.777V410Z" transform="translate(-1232.38 -389.16)"/><path class="b" d="M1236.54,410.51V412.3l7.522,4.339v-1.791Z" transform="translate(-1236.54 -387.613)"/><path class="b" d="M1236.54,412.466v1.791l7.522,4.339V416.8Z" transform="translate(-1236.54 -386.298)"/><path class="b" d="M1236.54,420.287v1.791l7.522,4.339v-1.791Z" transform="translate(-1236.54 -381.036)"/><path class="b" d="M1236.54,422.243v1.791l7.522,4.339v-1.791Z" transform="translate(-1236.54 -379.72)"/><g transform="translate(10.344 48.489)"><path class="b" d="M1272.01,442.7l-29.287-16.893V427.6l29.287,16.893Z" transform="translate(-1242.724 -425.81)"/><path class="b" d="M1261.155,436.441v1.791l15.592,8.994v-1.791Z" transform="translate(-1230.324 -418.658)"/></g><g transform="translate(10.344 45.218)"><path class="b" d="M1257.438,432.341l-14.714-8.487v1.791l14.714,8.487Z" transform="translate(-1242.724 -423.854)"/><path class="b" d="M1252.443,429.46v1.791l30.165,17.4v-1.791Z" transform="translate(-1236.186 -420.083)"/></g><path class="b" d="M1268.1,432.627v1.791l3.968,2.289v-1.791Z" transform="translate(-1215.306 -372.735)"/><path class="b" d="M1263.583,428.064l-20.859-12.031v1.791l20.859,12.032Z" transform="translate(-1232.38 -383.898)"/><path class="b" d="M1255.036,407.49l-12.312-7.1v1.791l12.312,7.1Z" transform="translate(-1232.38 -394.422)"/><g transform="translate(24.2 13.958)"><path class="b" d="M1269.645,415.917l-18.638-10.75v1.79l18.638,10.751Z" transform="translate(-1251.007 -405.166)"/></g><path class="b" d="M1260.933,412.847l-13.122-7.569v1.791l13.122,7.569Z" transform="translate(-1228.958 -391.133)"/><g transform="translate(33.519 22.604)"><path class="b" d="M1268.8,417.386l-12.224-7.051v1.791l12.224,7.051Z" transform="translate(-1256.578 -410.335)"/><path class="b" d="M1264.809,415.083v1.791l9.48,5.468v-1.79Z" transform="translate(-1251.041 -407.142)"/></g><path class="b" d="M1244.173,405.136v1.791l9.887,5.7v-1.791Z" transform="translate(-1231.404 -391.229)"/><path class="b" d="M1279.706,425.631l-28.7-16.554v1.791l28.7,16.553Z" transform="translate(-1226.807 -388.577)"/><path class="b" d="M1265.884,423.525l-18.755-10.818V414.5l18.755,10.818Z" transform="translate(-1229.416 -386.136)"/><path class="b" d="M1274.151,428.293l-14.887-8.587V421.5l14.887,8.587Z" transform="translate(-1221.253 -381.427)"/><g transform="translate(32.747 45.056)"><path class="b" d="M1274.625,434.433l-18.508-10.675v1.791l18.508,10.675Z" transform="translate(-1256.117 -423.758)"/></g><path class="b" d="M1261.155,428.619v1.791l10.08,5.814v-1.791Z" transform="translate(-1219.98 -375.431)"/><path class="b" d="M1246.353,420.082l-3.63-2.094v1.791l3.63,2.094Z" transform="translate(-1232.38 -382.583)"/><g transform="translate(15.518 38.389)"><path class="b" d="M1248.959,421.584v1.791l18.857,10.877v-1.79Z" transform="translate(-1243.703 -418.552)"/><path class="b" d="M1249.529,421.913l-3.712-2.141v1.791l3.712,2.141Z" transform="translate(-1245.817 -419.772)"/></g><path class="b" d="M1266.441,433.624l-20.624-11.9v1.791l20.624,11.9Z" transform="translate(-1230.299 -380.067)"/></g><g class="i" transform="translate(716.968 1281.78)"><path class="b" d="M1194.219,365.029v1.531l6.43,3.709v-1.531Z" transform="translate(-1194.219 -365.029)"/><path class="b" d="M1194.219,366.7v1.531l6.43,3.709v-1.531Z" transform="translate(-1194.219 -363.904)"/><path class="b" d="M1194.219,368.372V369.9l6.43,3.709v-1.531Z" transform="translate(-1194.219 -362.78)"/><path class="b" d="M1239.19,397.513v-1.531l-39.684-22.89v1.531Z" transform="translate(-1190.663 -359.604)"/><path class="b" d="M1194.219,370.044v1.531l6.43,3.709v-1.531Z" transform="translate(-1194.219 -361.655)"/><path class="b" d="M1194.219,371.715v1.531l6.43,3.709v-1.531Z" transform="translate(-1194.219 -360.53)"/><path class="b" d="M1239.19,399.185v-1.531l-39.684-22.89V376.3Z" transform="translate(-1190.663 -358.479)"/><path class="b" d="M1194.219,376.73v1.531l6.43,3.709v-1.531Z" transform="translate(-1194.219 -357.157)"/><path class="b" d="M1194.219,378.4v1.531l6.43,3.709v-1.531Z" transform="translate(-1194.219 -356.032)"/><path class="b" d="M1194.219,385.088v1.531l6.43,3.709V388.8Z" transform="translate(-1194.219 -351.534)"/><path class="b" d="M1194.219,386.76v1.531l6.43,3.709v-1.531Z" transform="translate(-1194.219 -350.41)"/><g transform="translate(8.843 41.451)"><path class="b" d="M1224.542,404.25l-25.036-14.441v1.531l25.036,14.441Z" transform="translate(-1199.506 -389.809)"/><path class="b" d="M1215.262,398.9v1.531l13.329,7.688v-1.531Z" transform="translate(-1188.906 -383.695)"/></g><g transform="translate(8.843 38.655)"><path class="b" d="M1212.084,395.393l-12.578-7.255v1.531l12.578,7.255Z" transform="translate(-1199.506 -388.138)"/><path class="b" d="M1207.814,392.93v1.531l25.786,14.874V407.8Z" transform="translate(-1193.917 -384.914)"/></g><path class="b" d="M1221.2,395.637v1.531l3.392,1.957v-1.531Z" transform="translate(-1176.068 -344.438)"/><path class="b" d="M1217.337,391.736l-17.831-10.285v1.531l17.831,10.285Z" transform="translate(-1190.663 -353.981)"/><path class="b" d="M1210.03,374.149l-10.525-6.071v1.531l10.525,6.071Z" transform="translate(-1190.663 -362.977)"/><g transform="translate(20.687 11.932)"><path class="b" d="M1222.519,381.352l-15.933-9.19v1.531l15.933,9.19Z" transform="translate(-1206.586 -372.162)"/></g><path class="b" d="M1215.071,378.728l-11.218-6.47v1.531l11.218,6.47Z" transform="translate(-1187.738 -360.165)"/><g transform="translate(28.653 19.324)"><path class="b" d="M1221.8,382.608l-10.45-6.027v1.531l10.45,6.028Z" transform="translate(-1211.349 -376.581)"/><path class="b" d="M1218.385,380.639v1.531l8.1,4.675v-1.531Z" transform="translate(-1206.615 -373.851)"/></g><path class="b" d="M1200.745,372.136v1.531l8.452,4.875v-1.531Z" transform="translate(-1189.829 -360.247)"/><path class="b" d="M1231.12,389.656l-24.534-14.151v1.531l24.534,14.151Z" transform="translate(-1185.899 -357.981)"/><path class="b" d="M1219.3,387.856l-16.033-9.248v1.531l16.033,9.248Z" transform="translate(-1188.13 -355.893)"/><path class="b" d="M1226.372,391.932l-12.727-7.341v1.531l12.727,7.341Z" transform="translate(-1181.151 -351.868)"/><g transform="translate(27.994 38.516)"><path class="b" d="M1226.776,397.181l-15.821-9.126v1.531l15.821,9.126Z" transform="translate(-1210.955 -388.055)"/></g><path class="b" d="M1215.262,392.211v1.531l8.617,4.97v-1.531Z" transform="translate(-1180.064 -346.743)"/><path class="b" d="M1202.609,384.913l-3.1-1.79v1.531l3.1,1.79Z" transform="translate(-1190.663 -352.857)"/><g transform="translate(13.265 32.817)"><path class="b" d="M1204.836,386.2v1.531l16.12,9.3v-1.531Z" transform="translate(-1200.343 -383.605)"/><path class="b" d="M1205.323,386.478l-3.173-1.83v1.531l3.173,1.831Z" transform="translate(-1202.15 -384.648)"/></g><path class="b" d="M1219.78,396.489l-17.631-10.169v1.531l17.631,10.17Z" transform="translate(-1188.884 -350.706)"/></g><path class="o" d="M1195.958,462.748s-4.239-1.9-9.225,1.408-8.345,7.922-6.318,9.623,5.968,3.523,8.526,2.606S1204.143,468.03,1195.958,462.748Z" transform="translate(-486.941 982.125)"/><g transform="translate(749.715 1410.291)"><path class="g" d="M1278.32,456.7l-39.408,22.325L1213.8,464.495l39.4-22.319Z" transform="translate(-1213.797 -441.64)"/><g transform="translate(7.716)"><path class="ai" d="M1233.424,472.863v.879l39.408-22.561v-.643Z" transform="translate(-1208.308 -436.015)"/><path class="aj" d="M1282.933,456.379,1243.525,478.7l-25.116-14.529,39.405-22.319Z" transform="translate(-1218.409 -441.856)"/><path class="ak" d="M1243.525,469.728v.879l-25.116-14.531V455.2Z" transform="translate(-1218.409 -432.88)"/></g><path class="al" d="M1242.072,443.28l15.174,8.751-.665.377-15.174-8.751Z" transform="translate(-1195.223 -440.897)"/><path class="al" d="M1241.13,443.815l15.174,8.751-.665.377-15.174-8.751Z" transform="translate(-1195.856 -440.538)"/><path class="al" d="M1238.936,445.056l20.894,12.06-.665.377-20.894-12.06Z" transform="translate(-1197.332 -439.703)"/><path class="al" d="M1238.072,445.547l20.894,12.06-.665.376-20.894-12.06Z" transform="translate(-1197.913 -439.372)"/><path class="al" d="M1237.207,446.038,1258.1,458.1l-.665.376-20.894-12.06Z" transform="translate(-1198.495 -439.042)"/><path class="al" d="M1236.343,446.528l20.894,12.06-.665.377-20.894-12.06Z" transform="translate(-1199.077 -438.712)"/><path class="al" d="M1235.478,447.019l20.894,12.06-.665.376-20.894-12.06Z" transform="translate(-1199.658 -438.382)"/><path class="al" d="M1234.613,447.51l20.894,12.06-.665.376-20.894-12.06Z" transform="translate(-1200.24 -438.052)"/><path class="al" d="M1233.748,448l20.894,12.06-.665.376-20.894-12.06Z" transform="translate(-1200.822 -437.722)"/><path class="al" d="M1232.884,448.492l20.894,12.06-.665.376-20.894-12.06Z" transform="translate(-1201.403 -437.392)"/><path class="al" d="M1232.019,448.982l20.894,12.06-.665.377-20.894-12.06Z" transform="translate(-1201.985 -437.062)"/><path class="al" d="M1231.155,449.473l20.894,12.06-.665.377-20.894-12.06Z" transform="translate(-1202.567 -436.732)"/><path class="al" d="M1230.29,449.964l20.895,12.06-.666.376-20.894-12.06Z" transform="translate(-1203.148 -436.401)"/><path class="al" d="M1229.425,450.454l20.894,12.06-.665.376-20.894-12.06Z" transform="translate(-1203.73 -436.071)"/><path class="al" d="M1228.561,450.945l20.894,12.06-.665.377-20.894-12.06Z" transform="translate(-1204.311 -435.741)"/><path class="al" d="M1227.7,451.436l20.894,12.06-.665.377-20.894-12.06Z" transform="translate(-1204.893 -435.411)"/><path class="al" d="M1226.832,451.927l20.894,12.06-.665.377-20.894-12.06Z" transform="translate(-1205.475 -435.081)"/></g><g transform="translate(726.538 1433.548)"><path class="c" d="M1213.534,459.858h-2.979v3.213h2.979a2.012,2.012,0,0,1,2.009,2.009V470.3a2.012,2.012,0,0,1-2.009,2.009h-4.369v3.213h4.369a5.229,5.229,0,0,0,5.222-5.222V465.08A5.228,5.228,0,0,0,1213.534,459.858Z" transform="translate(-1193.736 -453.003)"/><path class="a" d="M1218.619,458.8v18.1c0,2.805-4.18,5.078-9.339,5.078s-9.339-2.273-9.339-5.078V458.8Z" transform="translate(-1199.941 -453.718)"/><path class="b" d="M1199.941,460.838c0,2.8,4.18,5.078,9.339,5.078s9.339-2.275,9.339-5.078-4.18-5.078-9.339-5.078S1199.941,458.033,1199.941,460.838Z" transform="translate(-1199.941 -455.76)"/><path class="c" d="M1201.052,460.355c0,2.193,3.349,3.971,7.48,3.971s7.48-1.778,7.48-3.971-3.349-3.971-7.48-3.971S1201.052,458.162,1201.052,460.355Z" transform="translate(-1199.194 -455.34)"/><path class="l" d="M1208.364,457.938c-3.274,0-6.047,1.117-7.062,2.671,1.015,1.554,3.789,2.671,7.062,2.671s6.047-1.117,7.062-2.671C1214.411,459.055,1211.636,457.938,1208.364,457.938Z" transform="translate(-1199.025 -454.295)"/><path class="c" d="M1207.634,462.422v18.1a10.055,10.055,0,0,0,4.4-2.029v-18.1A10.055,10.055,0,0,1,1207.634,462.422Z" transform="translate(-1194.766 -452.643)"/></g><g transform="translate(745.77 1481.475)"><g transform="translate(0 14.376)"><path class="a" d="M1234.928,514.984l-23.49-13.636v8.789l23.492,13.6Z" transform="translate(-1211.438 -487.395)"/><path class="b" d="M1235.717,493.006l-24.279,13.953,23.49,13.636,24.313-13.973Z" transform="translate(-1211.438 -493.006)"/><path class="c" d="M1249.8,501.146l-24.314,13.974,0,8.751L1249.8,509.8Z" transform="translate(-1201.991 -487.531)"/></g><path class="a" d="M1234.928,506.389l-23.49-13.636v8.789l23.492,13.6Z" transform="translate(-1211.438 -478.801)"/><path class="b" d="M1235.717,484.412l-24.279,13.953L1234.928,512l24.313-13.973Z" transform="translate(-1211.438 -484.412)"/><path class="c" d="M1249.8,492.552l-24.314,13.974,0,8.751L1249.8,501.21Z" transform="translate(-1201.991 -478.937)"/><g transform="translate(12.766 7.072)"><path class="k" d="M1237.124,500.543l-1.477-.851a13.659,13.659,0,0,1-3.454.831l.007,1.2-3.583,0-.008-1.2a13.8,13.8,0,0,1-3.459-.831l-1.467.851-2.544-1.469,1.467-.852a4.644,4.644,0,0,1-1.445-2l-2.077,0-.012-2.078h2.078a4.6,4.6,0,0,1,1.422-2l-1.474-.851,2.526-1.467,1.474.852a13.678,13.678,0,0,1,3.452-.83l-.005-1.2h3.585l0,1.2a13.74,13.74,0,0,1,3.463.83l1.465-.853,2.544,1.469-1.465.853a4.641,4.641,0,0,1,1.444,2h2.081l.01,2.076h-2.079a4.557,4.557,0,0,1-1.422,2l1.477.851Zm-10.065-3.434a7.325,7.325,0,0,0,6.649,0c1.83-1.064,1.82-2.788-.021-3.852a7.336,7.336,0,0,0-6.649,0c-1.83,1.064-1.822,2.788.022,3.852" transform="translate(-1219.07 -488.64)"/></g></g></g></svg>